<svg xmlns="http://www.w3.org/2000/svg" xmlns:xlink="http://www.w3.org/1999/xlink" version="1.1" id="Layer_2" x="0px" y="0px" width="83.3333333333px" height="100px" viewBox="0 0 100 120" enable-background="new 0 0 100 120" xml:space="preserve">
<path d="M83.949,111.729H53.836V94.396c22.348-1.993,39.928-20.773,39.928-43.585c0-19.644-11.745-46.113-12.245-47.23  c-0.563-1.26-1.814-2.07-3.194-2.07H21.796c-1.385,0-2.639,0.816-3.2,2.083C18.083,4.749,6.042,32.152,6.042,50.81  c0,23.106,18.037,42.074,40.795,43.651v17.268H15.723c-1.933,0-3.5,1.567-3.5,3.5s1.567,3.5,3.5,3.5h68.226  c1.933,0,3.5-1.567,3.5-3.5S85.882,111.729,83.949,111.729z M24.113,8.509h51.899c2.716,6.527,10.751,27.128,10.751,42.301  c0,4.669-0.887,9.133-2.484,13.247H15.526c-1.599-4.113-2.485-8.577-2.485-13.247C13.042,36.425,21.347,15.184,24.113,8.509z"/>
</svg>